Coordinates
version=1
nRows=6
nColumns=107
inDegrees=yes

Units are S.I. units (second, meters, Newtons, ...)
If the header above contains a line with 'inDegrees', this indicates whether rotational values are in degrees (yes) or radians (no).

endheader
time	sternoclavicular_r2	sternoclavicular_r3	unrotscap_r3	unrotscap_r2	acromioclavicular_r2	acromioclavicular_r3	acromioclavicular_r1	unrothum_r1	unrothum_r3	unrothum_r2	elv_angle	shoulder_elv	shoulder1_r2	shoulder_rot	elbow_flexion	pro_sup	deviation	flexion	proximal_distal_r1	proximal_distal_r3	cmc_flexion	cmc_abduction	mp_flexion	ip_flexion	mcp2_flexion	mcp2_abduction	pm2_flexion	md2_flexion	mcp3_flexion	mcp3_abduction	pm3_flexion	md3_flexion	mcp4_flexion	mcp4_abduction	pm4_flexion	md4_flexion	mcp5_flexion	mcp5_abduction	pm5_flexion	md5_flexion	bicpt_tx	bicpt_ty	bicpt_tz	bicpt2_tx	bicpt2_ty	bicpt2_tz	ptpt_tx	ptpt_ty	ptpt_tz	FCUpt_tx	FCUpt_ty	FCUpt_tz	EDCpt_tx	EDCpt_ty	EDCpt_tz	APLpt_tx	APLpt_ty	APLpt_tz	FPLpt_tx	FPLpt_ty	FPLpt_tz	FPLpt2_tx	FPLpt2_ty	FPLpt2_tz	PEC1pt2_tx	PEC1pt2_ty	PEC1pt2_tz	PEC1pt3_tx	PEC1pt3_ty	PEC1pt3_tz	PEC2pt2_tx	PEC2pt2_ty	PEC2pt2_tz	PEC2pt3_tx	PEC2pt3_ty	PEC2pt3_tz	PEC3pt2_tx	PEC3pt2_ty	PEC3pt2_tz	PEC3pt3_tx	PEC3pt3_ty	PEC3pt3_tz	DELT2pt2a_tx	DELT2pt2a_ty	DELT2pt2a_tz	DELT2pt2_tx	DELT2pt2_ty	DELT2pt2_tz	LAT1pt2_tx	LAT1pt2_ty	LAT1pt2_tz	LAT1pt3_tx	LAT1pt3_ty	LAT1pt3_tz	LAT2pt2_tx	LAT2pt2_ty	LAT2pt2_tz	LAT2pt3_tx	LAT2pt3_ty	LAT2pt3_tz	LAT3pt2_tx	LAT3pt2_ty	LAT3pt2_tz	LAT3pt3_tx	LAT3pt3_ty	LAT3pt3_tz
      1.80000000	     -0.33718212	      0.14281443	     -0.14281443	      0.33718212	     -0.06827252	      0.55175449	      0.24800985	     -0.24800985	     -0.55175449	      0.06827252	     94.21053883	     79.83086384	     -1.64428409	     -6.67890382	     34.77386794	      5.64003846	     -0.16305925	     -1.06376023	     -0.24305705	     -0.53188012	     40.81316135	    -22.44348116	     -6.55213124	      2.41967067	    -15.97100828	     13.89154046	     35.13488536	     13.47317749	      0.01546366	      9.48550067	     24.29241042	     22.56051005	     11.85954070	      8.60271264	      9.25033821	     21.06517850	     23.18855090	     -7.61399312	      4.76680438	      5.11112971	      0.00105021	     -0.03158562	     -0.00494198	      0.01515977	     -0.01964649	     -0.01031036	      0.00713326	     -0.06516947	     -0.00050434	      0.00450311	     -0.18404222	      0.00030204	     -0.00067680	      0.00016471	      0.00007317	      0.00014075	      0.00005630	      0.00028149	      0.00018015	      0.00054046	      0.00030401	     -0.00000939	     -0.00009496	     -0.00011396	      0.00261668	      0.00918056	      0.00638647	     -0.00855965	      0.02066734	     -0.01960293	      0.00261668	      0.00918056	      0.00638647	      0.00057656	      0.01915942	     -0.01006757	      0.00408417	      0.00510519	      0.01629089	      0.00000000	      0.00852897	      0.00000000	     -0.00749524	     -0.03463775	     -0.00703641	      0.00490255	     -0.00006516	     -0.00021883	     -0.00093136	      0.01561138	     -0.00638647	      0.00257233	      0.02253006	     -0.01862722	     -0.00625342	      0.01352691	     -0.00572122	     -0.01303905	      0.02856173	     -0.03197672	     -0.02448149	      0.01512353	     -0.00767264	     -0.01623229	      0.03299678	     -0.03995982
      1.83333333	     -0.33776466	      0.14306117	     -0.14306117	      0.33776466	     -0.06839047	      0.55270774	      0.24843833	     -0.24843833	     -0.55270774	      0.06839047	     94.27438072	     79.96878511	     -1.64539834	     -6.43575733	     34.48341509	      5.13082920	     -0.16260700	     -1.04438969	     -0.24232271	     -0.52219484	     41.46147228	    -22.33518119	     -2.37460260	      2.34896355	    -19.68131847	     13.82391105	     32.58114018	     14.75906783	     -4.56752223	      8.44308849	     22.50101099	     21.81029772	      8.12446952	      8.65746352	      7.74457657	     20.73594178	     22.26603339	     -7.76460371	      3.66416624	      5.12543950	      0.00104060	     -0.03155233	     -0.00493662	      0.01511847	     -0.01956759	     -0.01033999	      0.00717089	     -0.06514514	     -0.00046332	      0.00445728	     -0.18404780	      0.00031893	     -0.00061570	      0.00014944	      0.00006726	      0.00015511	      0.00006204	      0.00031022	      0.00019854	      0.00059562	      0.00033503	     -0.00000834	     -0.00008151	     -0.00009781	      0.00262120	      0.00919642	      0.00639751	     -0.00857444	      0.02070305	     -0.01963680	      0.00262120	      0.00919642	      0.00639751	      0.00057755	      0.01919252	     -0.01008496	      0.00408920	      0.00511401	      0.01630245	      0.00000000	      0.00855870	      0.00000000	     -0.00750819	     -0.03469760	     -0.00706107	      0.00471850	     -0.00005994	     -0.00019409	     -0.00093297	      0.01563835	     -0.00639751	      0.00257677	      0.02256899	     -0.01865940	     -0.00626423	      0.01355028	     -0.00573110	     -0.01306158	      0.02861108	     -0.03203197	     -0.02452378	      0.01514965	     -0.00768590	     -0.01626033	      0.03305379	     -0.04002885
      1.86666667	     -0.33672913	      0.14262257	     -0.14262257	      0.33672913	     -0.06818080	      0.55101323	      0.24767666	     -0.24767666	     -0.55101323	      0.06818080	     94.58584829	     79.72361404	     -1.65083448	     -7.23062053	     34.04894916	      5.45926997	     -0.16213015	     -1.05301905	     -0.24154881	     -0.52650952	     41.91551131	    -21.90759965	     -1.01313959	      2.33486403	    -20.97313321	     13.75116285	     31.56826973	     14.77347932	     -7.20329659	      7.19541525	     21.37357135	     21.50637001	      6.12861528	      8.05170368	      6.78495729	     20.61469054	     21.94384796	     -8.89845001	      3.18240153	      5.03579459	      0.00102623	     -0.03150253	     -0.00492860	      0.01514517	     -0.01944956	     -0.01032091	      0.00714662	     -0.06516083	     -0.00048977	      0.00448683	     -0.18404421	      0.00030802	     -0.00065511	      0.00015928	      0.00007108	      0.00014878	      0.00005951	      0.00029756	      0.00019044	      0.00057131	      0.00032136	     -0.00000753	     -0.00007183	     -0.00008619	      0.00261317	      0.00916822	      0.00637789	     -0.00854815	      0.02063958	     -0.01957659	      0.00261317	      0.00916822	      0.00637789	      0.00057578	      0.01913368	     -0.01005404	      0.00408025	      0.00509833	      0.01628187	      0.00000000	      0.00850589	      0.00000000	     -0.00748517	     -0.03459122	     -0.00701727	      0.00531716	     -0.00007752	     -0.00027962	     -0.00093011	      0.01559041	     -0.00637789	      0.00256887	      0.02249979	     -0.01860219	     -0.00624502	      0.01350873	     -0.00571353	     -0.01302153	      0.02852336	     -0.03193376	     -0.02444860	      0.01510321	     -0.00766233	     -0.01621048	      0.03295245	     -0.03990613
      1.90000000	     -0.33622756	      0.14241013	     -0.14241013	      0.33622756	     -0.06807924	      0.55019249	      0.24730774	     -0.24730774	     -0.55019249	      0.06807924	     94.83308957	     79.60486437	     -1.65514965	     -7.56635992	     33.55769230	      5.67835785	     -0.16042651	     -1.07103382	     -0.23878692	     -0.53551691	     42.08306175	    -21.41477876	     -0.72864972	      2.32420314	    -21.59353331	     13.67440163	     31.19291705	     14.73895414	     -8.91074408	      6.22604140	     20.66171076	     21.26588215	      4.89947894	      7.45897774	      6.20821521	     20.45136762	     21.93885239	     -9.49327642	      3.03284084	      5.01791624	      0.00100998	     -0.03144622	     -0.00491953	      0.01516283	     -0.01931611	     -0.01030810	      0.00713043	     -0.06517130	     -0.00050742	      0.00450656	     -0.18404179	      0.00030078	     -0.00068140	      0.00016586	      0.00007360	      0.00013517	      0.00005407	      0.00027033	      0.00017301	      0.00051903	      0.00029196	     -0.00000721	     -0.00006820	     -0.00008184	      0.00260927	      0.00915457	      0.00636839	     -0.00853542	      0.02060883	     -0.01954743	      0.00260927	      0.00915457	      0.00636839	      0.00057492	      0.01910518	     -0.01003907	      0.00407591	      0.00509074	      0.01627185	      0.00000000	      0.00848037	      0.00000000	     -0.00747402	     -0.03453970	     -0.00699610	      0.00556749	     -0.00008533	     -0.00031963	     -0.00092872	      0.01556719	     -0.00636839	      0.00256505	      0.02246628	     -0.01857448	     -0.00623572	      0.01348861	     -0.00570502	     -0.01300214	      0.02848088	     -0.03188620	     -0.02441218	      0.01508071	     -0.00765092	     -0.01618634	      0.03290337	     -0.03984669
      1.93333333	     -0.33564386	      0.14216290	     -0.14216290	      0.33564386	     -0.06796106	      0.54923734	      0.24687840	     -0.24687840	     -0.54923734	      0.06796106	     95.00777497	     79.46666837	     -1.65819849	     -8.32474840	     33.30435166	      7.04255062	     -0.15930626	     -1.04212491	     -0.23697345	     -0.52106245	     41.43360174	    -21.69965689	      2.75581456	     -3.43161656	    -23.76534955	     13.32288194	     30.63451425	     16.67332985	    -11.37908414	      4.71467540	     19.61173821	     22.08533678	      2.17137553	      6.54309458	      5.21043812	     23.21274814	     20.86597685	    -10.08055103	      2.38482920	      5.06985055	      0.00100160	     -0.03141719	     -0.00491485	      0.01527037	     -0.01924729	     -0.01022682	      0.00702963	     -0.06523648	     -0.00061732	      0.00462974	     -0.18402645	      0.00025654	     -0.00084510	      0.00020719	      0.00008868	      0.00015675	      0.00006270	      0.00031350	      0.00020064	      0.00060191	      0.00033858	     -0.00000839	     -0.00008210	     -0.00009852	      0.00260474	      0.00913867	      0.00635734	     -0.00852060	      0.02057305	     -0.01951350	      0.00260474	      0.00913867	      0.00635734	      0.00057393	      0.01907202	     -0.01002164	      0.00407085	      0.00508190	      0.01626016	      0.00000000	      0.00845072	      0.00000000	     -0.00746104	     -0.03447973	     -0.00697151	      0.00612741	     -0.00010368	     -0.00041840	     -0.00092711	      0.01554016	     -0.00635734	      0.00256059	      0.02242728	     -0.01854224	     -0.00622489	      0.01346520	     -0.00569512	     -0.01297957	      0.02843143	     -0.03183084	     -0.02436980	      0.01505453	     -0.00763764	     -0.01615824	      0.03284625	     -0.03977752
      1.96666667	     -0.33579591	      0.14222730	     -0.14222730	      0.33579591	     -0.06799184	      0.54948615	      0.24699024	     -0.24699024	     -0.54948615	      0.06799184	     95.13276848	     79.50266727	     -1.66038004	     -8.27283106	     32.95370733	      7.72312953	     -0.15656268	     -1.04518383	     -0.23254059	     -0.52259192	     41.02819626	    -21.58180253	      3.38727792	     -5.70288563	    -24.56059670	     13.08276290	     31.73150997	     17.21520399	    -12.57544266	      3.76137617	     20.72752596	     22.42602318	      1.23536298	      5.58970101	      5.83104357	     24.70869794	     20.87058627	    -10.66058181	      2.27530341	      5.12059661	      0.00099001	     -0.03137700	     -0.00490838	      0.01532243	     -0.01915204	     -0.01018529	      0.00697935	     -0.06526899	     -0.00067214	      0.00469141	     -0.18401859	      0.00023498	     -0.00092677	      0.00022802	      0.00009582	      0.00015455	      0.00006182	      0.00030909	      0.00019782	      0.00059346	      0.00033382	     -0.00000905	     -0.00009053	     -0.00010864	      0.00260592	      0.00914281	      0.00636022	     -0.00852446	      0.02058237	     -0.01952234	      0.00260592	      0.00914281	      0.00636022	      0.00057419	      0.01908066	     -0.01002618	      0.00407217	      0.00508420	      0.01626321	      0.00000000	      0.00845843	      0.00000000	     -0.00746442	     -0.03449535	     -0.00697791	      0.00608934	     -0.00010239	     -0.00041125	     -0.00092753	      0.01554720	     -0.00636022	      0.00256175	      0.02243744	     -0.01855064	     -0.00622771	      0.01347130	     -0.00569770	     -0.01298545	      0.02844431	     -0.03184526	     -0.02438084	      0.01506135	     -0.00764110	     -0.01616556	      0.03286113	     -0.03979554
